<svg width="151" height="58" viewBox="0 0 151 58" fill="none" xmlns="http://www.w3.org/2000/svg">
<path d="M1.76136 50V26.7273H17.6477V31.2955H7.38636V36.0682H16.6364V40.6477H7.38636V50H1.76136ZM26.0369 26.7273V50H20.4801V26.7273H26.0369ZM34.4943 50.2955C33.3807 50.2955 32.392 50.1098 31.5284 49.7386C30.6723 49.3598 29.9943 48.7917 29.4943 48.0341C29.0019 47.2689 28.7557 46.3106 28.7557 45.1591C28.7557 44.1894 28.9261 43.3712 29.267 42.7045C29.608 42.0379 30.0777 41.4962 30.6761 41.0795C31.2746 40.6629 31.964 40.3485 32.7443 40.1364C33.5246 39.9167 34.358 39.7689 35.2443 39.6932C36.2367 39.6023 37.036 39.5076 37.642 39.4091C38.2481 39.303 38.6875 39.1553 38.9602 38.9659C39.2405 38.7689 39.3807 38.4924 39.3807 38.1364V38.0795C39.3807 37.4962 39.1799 37.0455 38.7784 36.7273C38.3769 36.4091 37.8352 36.25 37.1534 36.25C36.4186 36.25 35.8277 36.4091 35.3807 36.7273C34.9337 37.0455 34.6496 37.4848 34.5284 38.0455L29.4034 37.8636C29.5549 36.803 29.9451 35.8561 30.5739 35.0227C31.2102 34.1818 32.0814 33.5227 33.1875 33.0455C34.3011 32.5606 35.6383 32.3182 37.1989 32.3182C38.3125 32.3182 39.339 32.4508 40.2784 32.7159C41.2178 32.9735 42.036 33.3523 42.733 33.8523C43.4299 34.3447 43.9678 34.9508 44.3466 35.6705C44.733 36.3902 44.9261 37.2121 44.9261 38.1364V50H39.6989V47.5682H39.5625C39.2519 48.1591 38.8542 48.6591 38.3693 49.0682C37.892 49.4773 37.3277 49.7841 36.6761 49.9886C36.0322 50.1932 35.3049 50.2955 34.4943 50.2955ZM36.2102 46.6591C36.8087 46.6591 37.3466 46.5379 37.8239 46.2955C38.3087 46.053 38.6951 45.7197 38.983 45.2955C39.2708 44.8636 39.4148 44.3636 39.4148 43.7955V42.1364C39.2557 42.2197 39.0625 42.2955 38.8352 42.3636C38.6155 42.4318 38.3731 42.4962 38.108 42.5568C37.8428 42.6174 37.5701 42.6705 37.2898 42.7159C37.0095 42.7614 36.7405 42.803 36.483 42.8409C35.9602 42.9242 35.5133 43.053 35.142 43.2273C34.7784 43.4015 34.4981 43.6288 34.3011 43.9091C34.1117 44.1818 34.017 44.5076 34.017 44.8864C34.017 45.4621 34.2216 45.9015 34.6307 46.2045C35.0473 46.5076 35.5739 46.6591 36.2102 46.6591ZM63.5625 37.875L58.4602 38.0114C58.4072 37.6477 58.2633 37.3258 58.0284 37.0455C57.7936 36.7576 57.4867 36.5341 57.108 36.375C56.7367 36.2083 56.3049 36.125 55.8125 36.125C55.1686 36.125 54.6193 36.2538 54.1648 36.5114C53.7178 36.7689 53.4981 37.1174 53.5057 37.5568C53.4981 37.8977 53.6345 38.1932 53.9148 38.4432C54.2027 38.6932 54.714 38.8939 55.4489 39.0455L58.8125 39.6818C60.5549 40.0152 61.8504 40.5682 62.6989 41.3409C63.5549 42.1136 63.9867 43.1364 63.9943 44.4091C63.9867 45.6061 63.6307 46.6477 62.9261 47.5341C62.2292 48.4205 61.2746 49.1098 60.0625 49.6023C58.8504 50.0871 57.464 50.3295 55.9034 50.3295C53.411 50.3295 51.4451 49.8182 50.0057 48.7955C48.5739 47.7652 47.7557 46.3864 47.5511 44.6591L53.0398 44.5227C53.161 45.1591 53.4754 45.6439 53.983 45.9773C54.4905 46.3106 55.1383 46.4773 55.9261 46.4773C56.6383 46.4773 57.2178 46.3447 57.6648 46.0795C58.1117 45.8144 58.339 45.4621 58.3466 45.0227C58.339 44.6288 58.1648 44.3144 57.8239 44.0795C57.483 43.8371 56.9489 43.6477 56.2216 43.5114L53.1761 42.9318C51.4261 42.6136 50.1231 42.0265 49.267 41.1705C48.411 40.3068 47.9867 39.2083 47.9943 37.875C47.9867 36.7083 48.2973 35.7121 48.9261 34.8864C49.5549 34.053 50.4489 33.4167 51.608 32.9773C52.767 32.5379 54.1345 32.3182 55.7102 32.3182C58.0739 32.3182 59.9375 32.8144 61.3011 33.8068C62.6648 34.7917 63.4186 36.1477 63.5625 37.875ZM72.2869 40.0455V50H66.7301V26.7273H72.1051V35.75H72.2983C72.6922 34.6742 73.3362 33.8333 74.2301 33.2273C75.1316 32.6212 76.2339 32.3182 77.5369 32.3182C78.7642 32.3182 79.8324 32.5909 80.7415 33.1364C81.6506 33.6742 82.3551 34.4356 82.8551 35.4205C83.3627 36.4053 83.6127 37.5568 83.6051 38.875V50H78.0483V39.9659C78.0559 38.9962 77.8134 38.2386 77.321 37.6932C76.8286 37.1477 76.1354 36.875 75.2415 36.875C74.6581 36.875 74.143 37.0038 73.696 37.2614C73.2566 37.5114 72.9119 37.8712 72.6619 38.3409C72.4195 38.8106 72.2945 39.3788 72.2869 40.0455ZM108.199 35.1591H102.517C102.441 34.5758 102.286 34.0492 102.051 33.5795C101.816 33.1098 101.506 32.7083 101.119 32.375C100.733 32.0417 100.275 31.7879 99.7443 31.6136C99.2216 31.4318 98.642 31.3409 98.0057 31.3409C96.8769 31.3409 95.9034 31.6174 95.0852 32.1705C94.2746 32.7235 93.6496 33.5227 93.2102 34.5682C92.7784 35.6136 92.5625 36.8788 92.5625 38.3636C92.5625 39.9091 92.7822 41.2045 93.2216 42.25C93.6686 43.2879 94.2936 44.072 95.0966 44.6023C95.9072 45.125 96.8655 45.3864 97.9716 45.3864C98.5928 45.3864 99.1572 45.3068 99.6648 45.1477C100.18 44.9886 100.631 44.7576 101.017 44.4545C101.411 44.1439 101.733 43.7689 101.983 43.3295C102.241 42.8826 102.419 42.3788 102.517 41.8182L108.199 41.8523C108.1 42.8826 107.801 43.8977 107.301 44.8977C106.809 45.8977 106.131 46.8106 105.267 47.6364C104.403 48.4545 103.35 49.1061 102.108 49.5909C100.873 50.0758 99.4564 50.3182 97.858 50.3182C95.7519 50.3182 93.8655 49.8561 92.1989 48.9318C90.5398 48 89.2292 46.6439 88.267 44.8636C87.3049 43.0833 86.8239 40.9167 86.8239 38.3636C86.8239 35.803 87.3125 33.6326 88.2898 31.8523C89.267 30.072 90.589 28.7197 92.2557 27.7955C93.9223 26.8712 95.7898 26.4091 97.858 26.4091C99.267 26.4091 100.57 26.6061 101.767 27C102.964 27.3864 104.017 27.9545 104.926 28.7045C105.835 29.447 106.574 30.3598 107.142 31.4432C107.71 32.5265 108.062 33.7652 108.199 35.1591ZM111.418 50V26.7273H127.645V31.2955H117.043V36.0682H126.815V40.6477H117.043V45.4318H127.645V50H111.418ZM131.168 50V26.7273H140.781C142.524 26.7273 144.027 27.0682 145.293 27.75C146.565 28.4242 147.546 29.3674 148.236 30.5795C148.925 31.7841 149.27 33.1856 149.27 34.7841C149.27 36.3902 148.918 37.7955 148.213 39C147.516 40.197 146.52 41.125 145.224 41.7841C143.929 42.4432 142.391 42.7727 140.611 42.7727H134.679V38.3409H139.565C140.414 38.3409 141.122 38.1932 141.69 37.8977C142.266 37.6023 142.702 37.1894 142.997 36.6591C143.293 36.1212 143.44 35.4962 143.44 34.7841C143.44 34.0644 143.293 33.4432 142.997 32.9205C142.702 32.3902 142.266 31.9811 141.69 31.6932C141.115 31.4053 140.406 31.2614 139.565 31.2614H136.793V50H131.168Z" fill="white"/>
<rect x="0.5" y="1" width="15" height="15" rx="3.5" fill="#18181B" stroke="#27272A"/>
<rect x="20.5" y="1" width="15" height="15" rx="3.5" fill="#14532D" stroke="#15803D"/>
<rect x="40.5" y="1" width="15" height="15" rx="3.5" fill="#166534" stroke="#16A34A"/>
<rect x="60.5" y="1" width="15" height="15" rx="3.5" fill="#15803D" stroke="#22C55E"/>
<rect x="80.5" y="1" width="15" height="15" rx="3.5" fill="#16A34A" stroke="#4ADE80"/>
<rect x="100.5" y="1" width="15" height="15" rx="3.5" fill="#22C55E" stroke="#86EFAC"/>
</svg>
